<svg width="172" height="58" viewBox="0 0 172 58" fill="none" xmlns="http://www.w3.org/2000/svg">
<path d="M34.7394 28.9997C34.7394 23.6731 30.4055 19.3403 25.0794 19.3403C19.7523 19.3403 15.4189 23.6731 15.4189 28.9997C15.4189 34.3252 19.7523 38.658 25.0794 38.658C30.4055 38.658 34.7394 34.3252 34.7394 28.9997ZM32.1095 33.4689C31.6402 33.2942 31.1272 33.1398 30.5829 33.004C30.9054 31.9264 31.0987 30.7426 31.1409 29.4936H33.3957C33.3092 30.9512 32.8509 32.3059 32.1095 33.4689ZM32.0115 24.3707C32.8142 25.5655 33.3048 26.982 33.3951 28.5058H31.1403C31.0976 27.184 30.8813 25.9367 30.5249 24.812C31.0549 24.6817 31.5543 24.5344 32.0115 24.3707ZM31.3665 23.5335C31.0007 23.6551 30.5999 23.7635 30.1837 23.8631C29.8218 22.9909 29.3728 22.2172 28.8515 21.5727C29.8125 22.06 30.6645 22.7297 31.3665 23.5335ZM27.6907 28.5058C27.6776 27.5575 27.6212 26.4361 27.5024 25.3043C28.2301 25.2375 28.9194 25.1406 29.5727 25.019C29.9078 26.0698 30.1109 27.2514 30.1536 28.5058H27.6907ZM30.1536 29.4942C30.1131 30.6752 29.928 31.7901 29.6263 32.7948C28.9649 32.6678 28.2613 32.5665 27.5221 32.498C27.6256 31.4342 27.6787 30.3878 27.6907 29.4942H30.1536ZM29.2178 24.069C28.6429 24.1736 28.0291 24.2585 27.3808 24.3192C27.1963 22.9914 26.9143 21.7392 26.5096 20.8406C27.6146 21.3849 28.5635 22.538 29.2178 24.069ZM23.457 28.5058C23.4707 27.3379 23.5337 26.2893 23.6295 25.3738C24.1026 25.4001 24.5834 25.4165 25.0789 25.4165C25.5733 25.4165 26.0546 25.4001 26.5277 25.3738C26.6241 26.2893 26.6871 27.3379 26.7018 28.5058H23.457ZM26.7029 29.4942C26.6898 30.58 26.6328 31.5601 26.5491 32.428C26.0689 32.4022 25.581 32.3842 25.0794 32.3842C24.5768 32.3842 24.0895 32.4022 23.6109 32.428C23.526 31.5601 23.4707 30.58 23.457 29.4942H26.7029ZM24.8391 20.6709C24.919 20.6692 24.9984 20.6594 25.0794 20.6594C25.1594 20.6594 25.2382 20.6698 25.3193 20.6709C25.6577 21.1029 26.1099 22.3513 26.4062 24.3893C25.973 24.4129 25.5334 24.4271 25.0789 24.4271C24.6233 24.4271 24.1836 24.4129 23.7527 24.3899C24.0484 22.3519 24.5007 21.1029 24.8391 20.6709ZM23.6503 20.8412C23.2457 21.7386 22.9626 22.992 22.7781 24.3198C22.1309 24.259 21.5171 24.1747 20.9405 24.0696C21.5943 22.538 22.5443 21.3833 23.6503 20.8412ZM22.4682 28.5058H20.0053C20.0491 27.2514 20.2517 26.0698 20.5862 25.019C21.24 25.1417 21.9294 25.2375 22.6571 25.3043C22.5382 26.4361 22.4813 27.5575 22.4682 28.5058ZM22.6373 32.498C21.8976 32.5665 21.1945 32.6678 20.5315 32.7943C20.2303 31.7901 20.0458 30.6752 20.0047 29.4942H22.4676C22.4797 30.3883 22.5328 31.4342 22.6373 32.498ZM21.3057 21.5716C20.7872 22.2166 20.3371 22.9892 19.9746 23.8631C19.5585 23.764 19.1587 23.6551 18.793 23.5335C19.4955 22.728 20.3458 22.06 21.3057 21.5716ZM18.1452 24.3707C18.6052 24.5344 19.1023 24.6817 19.6346 24.8126C19.2787 25.9367 19.0613 27.184 19.0186 28.5058H16.7632C16.8535 26.9831 17.3425 25.5655 18.1452 24.3707ZM18.0483 33.4689C17.3064 32.3059 16.8497 30.9501 16.7626 29.4936H19.018C19.0574 30.7426 19.2557 31.9264 19.5771 33.0034C19.0312 33.1403 18.5186 33.2942 18.0483 33.4689ZM18.6561 34.3137C19.0405 34.1823 19.4621 34.0641 19.9051 33.9545C20.2779 34.9013 20.7516 35.7385 21.3057 36.4284C20.2845 35.9082 19.3816 35.1887 18.6561 34.3137ZM20.8594 33.7481C21.4513 33.6364 22.0821 33.5483 22.7496 33.4836C22.9336 34.8859 23.2249 36.2165 23.6503 37.1577C22.4999 36.5927 21.516 35.3716 20.8594 33.7481ZM25.3198 37.3291C25.2388 37.3313 25.1594 37.3406 25.08 37.3406C24.999 37.3406 24.919 37.3313 24.8396 37.3291C24.4892 36.8834 24.0183 35.5709 23.7248 33.4125C24.1667 33.3895 24.6146 33.3736 25.0805 33.3736C25.5471 33.3736 25.9949 33.39 26.4368 33.4125C26.1411 35.5709 25.6697 36.8834 25.3198 37.3291ZM26.5096 37.1577C26.9345 36.2165 27.2253 34.8859 27.4109 33.4836C28.0773 33.5483 28.7092 33.6364 29.2994 33.7481C28.6429 35.3716 27.6601 36.5927 26.5096 37.1577ZM28.8515 36.4284C29.4073 35.7385 29.8809 34.9018 30.2549 33.9545C30.6968 34.0641 31.1179 34.1823 31.5022 34.3143C30.7773 35.1882 29.8733 35.9066 28.8515 36.4284Z" fill="white"/>
<path d="M40.3699 29.5577L37.5472 29.5571C37.2636 36.0079 32.0865 41.1844 25.6357 41.4675V44.5776C26.1937 44.5546 26.75 44.5114 27.3036 44.4281L28.0734 46.5006L31.7382 45.4581L31.2963 43.2564C32.4117 42.7554 33.4789 42.1224 34.4711 41.3427L36.2134 42.8287L38.9084 40.1359L37.3786 38.3448C38.1128 37.351 38.7217 36.2926 39.1872 35.1887L41.5378 35.6591L42.5787 31.9954L40.2636 31.1335C40.3293 30.609 40.3589 30.0828 40.3699 29.5577Z" fill="white"/>
<path d="M12.6124 29.5537H9.61231C9.62435 30.1018 9.65666 30.6494 9.72675 31.1953L7.57978 31.9931L7.96033 33.3318H5.42899C5.29484 32.8511 4.85845 32.4968 4.33498 32.4968C3.70475 32.4968 3.19388 33.0071 3.19388 33.6368C3.19388 34.2676 3.70475 34.7779 4.33498 34.7779C4.85845 34.7779 5.29484 34.4237 5.42899 33.9429H8.13391L8.62123 35.6573L10.8098 35.2187C11.0743 35.844 11.388 36.4512 11.7412 37.0426H2.23511C2.10096 36.5619 1.66456 36.2076 1.1411 36.2076C0.510868 36.2076 0 36.7179 0 37.3476C0 37.9784 0.510868 38.4887 1.1411 38.4887C1.66456 38.4887 2.10096 38.1344 2.23511 37.6537H12.1206C12.2997 37.9247 12.4875 38.1914 12.6852 38.4531L11.2517 40.1341L13.9456 42.8286L15.6036 41.4121C16.621 42.1956 17.7095 42.8346 18.8484 43.3313L18.4224 45.458L22.0856 46.4994L22.8478 44.4526C23.4046 44.5299 23.9648 44.5676 24.5249 44.5841V41.4668C18.0726 41.1832 12.8943 36.005 12.6124 29.5537Z" fill="white"/>
<path d="M2.24169 29.2786C2.76515 29.2786 3.20155 28.9243 3.3357 28.4436H9.62655H11.6777H12.6118C12.8954 21.9928 18.0726 16.8157 24.5227 16.5321V13.8354C24.0135 13.8496 23.5037 13.8814 22.9967 13.9471L22.0867 11.4995L18.4225 12.541L18.9257 15.0542C17.8574 15.5109 16.8335 16.1023 15.8687 16.8141L13.9446 15.1709L11.2506 17.8648L12.85 19.7396C12.0955 20.7044 11.4773 21.7382 10.9856 22.8175L8.62069 22.3438L7.57924 26.007L9.7837 26.8266C9.73113 27.1601 9.69663 27.4963 9.6698 27.8325H3.3357C3.20155 27.3517 2.76515 26.9975 2.24169 26.9975C1.61145 26.9975 1.10059 27.5078 1.10059 28.1375C1.10059 28.7688 1.61145 29.2786 2.24169 29.2786Z" fill="white"/>
<path d="M49.2474 19.8541C48.7239 19.8519 48.2864 20.204 48.1495 20.6842L37.7756 20.636C37.5976 20.3704 37.412 20.1082 37.2154 19.8513L38.9106 17.8654L36.2156 15.1703L34.2099 16.8831C33.2659 16.1778 32.2655 15.5914 31.2197 15.1287L31.7382 12.541L28.0745 11.4995L27.1558 13.9706C26.6504 13.9 26.1433 13.8622 25.6357 13.8419L25.6363 16.5321C32.0881 16.8146 37.2663 21.9923 37.5494 28.4447L40.3562 28.4452L46.7538 28.4447C46.8879 28.9254 47.3244 29.2797 47.8478 29.2797C48.478 29.2797 48.9889 28.7694 48.9889 28.1397C48.9889 27.5089 48.478 26.9986 47.8478 26.9986C47.3249 26.9986 46.8879 27.3528 46.7538 27.8336H40.314C40.2883 27.5177 40.2565 27.2023 40.2083 26.8874L42.5831 26.0069L42.1034 24.321L44.5745 24.3325C44.7065 24.8138 45.1413 25.1703 45.6647 25.173C46.295 25.1758 46.808 24.6682 46.8113 24.0385C46.814 23.4077 46.3059 22.8947 45.6757 22.8919C45.1522 22.8892 44.7142 23.2418 44.5778 23.722L41.9299 23.71L41.5416 22.3438L39.013 22.8498C38.765 22.3033 38.4819 21.7689 38.1682 21.2493L48.149 21.2958C48.2809 21.7771 48.7157 22.1336 49.2391 22.1363C49.8694 22.139 50.383 21.6314 50.3857 21.0018C50.3863 20.3699 49.8776 19.8568 49.2474 19.8541Z" fill="white"/>
<path d="M57.3657 39V18H64.8957L69.0657 36.3H69.6057V18H73.5057V39H65.9757L61.8057 20.7H61.2657V39H57.3657ZM84.3634 39.42C82.8834 39.42 81.5734 39.11 80.4334 38.49C79.3134 37.85 78.4334 36.96 77.7934 35.82C77.1734 34.66 76.8634 33.3 76.8634 31.74V31.38C76.8634 29.82 77.1734 28.47 77.7934 27.33C78.4134 26.17 79.2834 25.28 80.4034 24.66C81.5234 24.02 82.8234 23.7 84.3034 23.7C85.7634 23.7 87.0334 24.03 88.1134 24.69C89.1934 25.33 90.0334 26.23 90.6334 27.39C91.2334 28.53 91.5334 29.86 91.5334 31.38V32.67H80.7034C80.7434 33.69 81.1234 34.52 81.8434 35.16C82.5634 35.8 83.4434 36.12 84.4834 36.12C85.5434 36.12 86.3234 35.89 86.8234 35.43C87.3234 34.97 87.7034 34.46 87.9634 33.9L91.0534 35.52C90.7734 36.04 90.3634 36.61 89.8234 37.23C89.3034 37.83 88.6034 38.35 87.7234 38.79C86.8434 39.21 85.7234 39.42 84.3634 39.42ZM80.7334 29.85H87.6934C87.6134 28.99 87.2634 28.3 86.6434 27.78C86.0434 27.26 85.2534 27 84.2734 27C83.2534 27 82.4434 27.26 81.8434 27.78C81.2434 28.3 80.8734 28.99 80.7334 29.85ZM100.1 39C99.1198 39 98.3198 38.7 97.6998 38.1C97.0998 37.48 96.7998 36.66 96.7998 35.64V27.24H93.0798V24.12H96.7998V19.5H100.58V24.12H104.66V27.24H100.58V34.98C100.58 35.58 100.86 35.88 101.42 35.88H104.3V39H100.1ZM109.281 39L107.181 24.12H110.931L112.251 36.45H112.791L114.711 24.12H120.771L122.691 36.45H123.231L124.551 24.12H128.301L126.201 39H119.931L118.011 26.67H117.471L115.551 39H109.281ZM131.607 39V24.12H135.387V39H131.607ZM133.497 22.38C132.817 22.38 132.237 22.16 131.757 21.72C131.297 21.28 131.067 20.7 131.067 19.98C131.067 19.26 131.297 18.68 131.757 18.24C132.237 17.8 132.817 17.58 133.497 17.58C134.197 17.58 134.777 17.8 135.237 18.24C135.697 18.68 135.927 19.26 135.927 19.98C135.927 20.7 135.697 21.28 135.237 21.72C134.777 22.16 134.197 22.38 133.497 22.38ZM145.756 39.42C143.816 39.42 142.226 39 140.986 38.16C139.746 37.32 138.996 36.12 138.736 34.56L142.216 33.66C142.356 34.36 142.586 34.91 142.906 35.31C143.246 35.71 143.656 36 144.136 36.18C144.636 36.34 145.176 36.42 145.756 36.42C146.636 36.42 147.286 36.27 147.706 35.97C148.126 35.65 148.336 35.26 148.336 34.8C148.336 34.34 148.136 33.99 147.736 33.75C147.336 33.49 146.696 33.28 145.816 33.12L144.976 32.97C143.936 32.77 142.986 32.5 142.126 32.16C141.266 31.8 140.576 31.31 140.056 30.69C139.536 30.07 139.276 29.27 139.276 28.29C139.276 26.81 139.816 25.68 140.896 24.9C141.976 24.1 143.396 23.7 145.156 23.7C146.816 23.7 148.196 24.07 149.296 24.81C150.396 25.55 151.116 26.52 151.456 27.72L147.946 28.8C147.786 28.04 147.456 27.5 146.956 27.18C146.476 26.86 145.876 26.7 145.156 26.7C144.436 26.7 143.886 26.83 143.506 27.09C143.126 27.33 142.936 27.67 142.936 28.11C142.936 28.59 143.136 28.95 143.536 29.19C143.936 29.41 144.476 29.58 145.156 29.7L145.996 29.85C147.116 30.05 148.126 30.32 149.026 30.66C149.946 30.98 150.666 31.45 151.186 32.07C151.726 32.67 151.996 33.49 151.996 34.53C151.996 36.09 151.426 37.3 150.286 38.16C149.166 39 147.656 39.42 145.756 39.42ZM162.088 39.42C160.608 39.42 159.298 39.11 158.158 38.49C157.038 37.85 156.158 36.96 155.518 35.82C154.898 34.66 154.588 33.3 154.588 31.74V31.38C154.588 29.82 154.898 28.47 155.518 27.33C156.138 26.17 157.008 25.28 158.128 24.66C159.248 24.02 160.548 23.7 162.028 23.7C163.488 23.7 164.758 24.03 165.838 24.69C166.918 25.33 167.758 26.23 168.358 27.39C168.958 28.53 169.258 29.86 169.258 31.38V32.67H158.428C158.468 33.69 158.848 34.52 159.568 35.16C160.288 35.8 161.168 36.12 162.208 36.12C163.268 36.12 164.048 35.89 164.548 35.43C165.048 34.97 165.428 34.46 165.688 33.9L168.778 35.52C168.498 36.04 168.088 36.61 167.548 37.23C167.028 37.83 166.328 38.35 165.448 38.79C164.568 39.21 163.448 39.42 162.088 39.42ZM158.458 29.85H165.418C165.338 28.99 164.988 28.3 164.368 27.78C163.768 27.26 162.978 27 161.998 27C160.978 27 160.168 27.26 159.568 27.78C158.968 28.3 158.598 28.99 158.458 29.85Z" fill="white"/>
</svg>
