<svg width="66" height="66" viewBox="0 0 66 66" fill="none" xmlns="http://www.w3.org/2000/svg">
<path d="M54.9577 41.1378H54.9544C56.464 39.4528 57.2528 36.9509 57.2528 34.535C57.2528 32.7447 56.5422 31.0278 55.2772 29.7619C54.0123 28.496 52.2966 27.7848 50.5077 27.7848C48.7188 27.7848 47.0031 28.496 45.7382 29.7619C44.4732 31.0278 43.7626 32.7447 43.7626 34.535C43.7626 36.4666 44.325 38.534 45.2672 40.0644C45.4998 40.4442 45.7646 40.8034 46.0585 41.1378H46.054C44.4841 41.1345 42.9533 41.6284 41.6809 42.5487C41.1082 42.4535 40.5286 42.4054 39.9479 42.4047H38.8155C39.5166 41.7729 40.1264 41.0465 40.6274 40.2465C42.0266 38.0466 42.8291 35.1531 42.8291 32.3079C42.8337 31.073 42.5946 29.8495 42.1255 28.7073C41.6565 27.5652 40.9667 26.527 40.0958 25.6522C39.2249 24.7775 38.19 24.0834 37.0505 23.6098C35.911 23.1362 34.6892 22.8924 33.4553 22.8924C32.2214 22.8924 30.9997 23.1362 29.8601 23.6098C28.7206 24.0834 27.6857 24.7775 26.8148 25.6522C25.9439 26.527 25.2542 27.5652 24.7851 28.7073C24.3161 29.8495 24.077 31.073 24.0815 32.3079C24.0815 35.0422 24.8761 37.9658 26.2073 40.1282C26.7191 40.9745 27.3516 41.7415 28.0847 42.405H26.9597C26.379 42.4056 25.7994 42.4538 25.2267 42.5489C23.9542 41.6286 22.4235 41.1348 20.8536 41.1381H20.8491C21.143 40.8036 21.4078 40.4445 21.6404 40.0647C22.5826 38.534 23.1451 36.4668 23.1451 34.5353C23.1451 32.7455 22.4346 31.029 21.17 29.7634C19.9053 28.4978 18.1901 27.7868 16.4017 27.7868C14.6132 27.7868 12.898 28.4978 11.6334 29.7634C10.3688 31.029 9.65833 32.7455 9.65833 34.5353C9.65833 36.9512 10.4474 39.453 11.9556 41.1381H11.9499C8.00348 41.1381 4.79297 44.1542 4.79297 47.8614V55.6563C4.79297 55.9257 4.89989 56.184 5.09021 56.3745C5.28054 56.5649 5.53867 56.6719 5.80783 56.6719H16.984V63.1162C16.984 63.3856 17.0909 63.6439 17.2812 63.8344C17.4715 64.0248 17.7297 64.1318 17.9988 64.1318H48.9102C49.1793 64.1318 49.4375 64.0248 49.6278 63.8344C49.8181 63.6439 49.925 63.3856 49.925 63.1162V56.6717H61.1033C61.3725 56.6717 61.6306 56.5647 61.8209 56.3742C62.0113 56.1838 62.1182 55.9254 62.1182 55.6561V47.8611C62.1182 44.154 58.906 41.1378 54.9577 41.1378ZM45.7923 34.535C45.7923 33.2835 46.2891 32.0832 47.1734 31.1982C48.0577 30.3132 49.2571 29.816 50.5077 29.816C51.7583 29.816 52.9577 30.3132 53.842 31.1982C54.7263 32.0832 55.2231 33.2835 55.2231 34.535C55.2231 37.0879 53.9418 41.1378 50.5058 41.1378C47.072 41.1378 45.7923 37.0879 45.7923 34.535ZM33.4535 24.9559C35.4011 24.9581 37.2682 25.7333 38.6454 27.1115C40.0225 28.4897 40.7972 30.3583 40.7994 32.3074C40.7994 32.3603 40.7973 32.4134 40.7965 32.4663C37.9685 32.1436 35.5276 31.5142 32.2312 28.9277C32.069 28.8005 31.8719 28.7257 31.6662 28.7133C31.4604 28.7009 31.2558 28.7515 31.0795 28.8583L26.1261 31.8604C26.2413 29.9929 27.0631 28.2394 28.4243 26.9568C29.7855 25.6742 31.5838 24.9587 33.4535 24.9559ZM27.9352 39.0627C27.0879 37.686 26.4946 35.9408 26.2443 34.1623L31.5391 30.9542C34.9803 33.5096 37.6739 34.1585 40.6167 34.4901C40.3366 36.2006 39.7437 37.8519 38.9149 39.1551C37.972 40.6375 36.2591 42.4051 33.4532 42.4051C31.1574 42.4047 29.3004 41.2803 27.9352 39.0627ZM11.6874 34.535C11.6874 33.9155 11.8093 33.3021 12.0462 32.7298C12.2831 32.1575 12.6303 31.6375 13.068 31.1994C13.5057 30.7614 14.0253 30.4139 14.5972 30.1769C15.1691 29.9398 15.7821 29.8178 16.4011 29.8178C17.0201 29.8178 17.633 29.9398 18.2049 30.1769C18.7768 30.4139 19.2964 30.7614 19.7341 31.1994C20.1718 31.6375 20.519 32.1575 20.7559 32.7298C20.9928 33.3021 21.1147 33.9155 21.1147 34.535C21.1147 37.0879 19.835 41.1378 16.4011 41.1378C12.9672 41.1378 11.6874 37.0879 11.6874 34.535ZM6.82205 54.6404V47.8611C6.82205 45.274 9.1221 43.1691 11.9492 43.1691H20.853C21.3996 43.169 21.9432 43.2503 22.466 43.4103C19.2167 44.9525 16.983 48.1096 16.983 51.7482V54.6408L6.82205 54.6404ZM47.8943 62.1006H42.75V55.8395C42.75 55.5702 42.643 55.3118 42.4527 55.1214C42.2624 54.9309 42.0043 54.8239 41.7351 54.8239C41.466 54.8239 41.2078 54.9309 41.0175 55.1214C40.8272 55.3118 40.7203 55.5702 40.7203 55.8395V62.1006H26.1903V55.8395C26.1903 55.5702 26.0833 55.3118 25.893 55.1214C25.7027 54.9309 25.4446 54.8239 25.1754 54.8239C24.9062 54.8239 24.6481 54.9309 24.4578 55.1214C24.2675 55.3118 24.1605 55.5702 24.1605 55.8395V62.1006H19.0127V51.7478C19.0127 47.716 22.5774 44.4359 26.959 44.4359H39.9486C44.3302 44.4359 47.8949 47.716 47.8949 51.7478L47.8943 62.1006ZM60.0885 54.6404H49.924V51.7478C49.924 48.1092 47.6903 44.9521 44.441 43.4099C44.9637 43.2499 45.5073 43.1686 46.054 43.1687H54.9577C57.7866 43.1687 60.0885 45.2736 60.0885 47.8608V54.6404ZM27.8143 13.2564L27.0226 18.7535C26.9962 18.9365 27.0203 19.1232 27.0922 19.2936C27.1641 19.4639 27.2812 19.6114 27.4307 19.72C27.5802 19.8287 27.7565 19.8945 27.9406 19.9102C28.1247 19.926 28.3096 19.8911 28.4753 19.8095L33.4535 17.3566L38.4352 19.8097C38.6009 19.8914 38.7859 19.9262 38.97 19.9104C39.154 19.8946 39.3303 19.8288 39.4798 19.7202C39.6293 19.6115 39.7463 19.464 39.8182 19.2937C39.8901 19.1233 39.9142 18.9366 39.8878 18.7536L39.096 13.2565L42.966 9.27476C43.0948 9.14223 43.1851 8.97704 43.227 8.79698C43.2689 8.61692 43.2609 8.42883 43.2038 8.25298C43.1468 8.07714 43.0429 7.92021 42.9033 7.79912C42.7637 7.67803 42.5937 7.59737 42.4116 7.56584L36.941 6.61813L34.351 1.70505C34.2648 1.54152 34.1357 1.40463 33.9776 1.30912C33.8194 1.21362 33.6382 1.16313 33.4535 1.16309C33.2687 1.16313 33.0875 1.21365 32.9293 1.3092C32.7711 1.40475 32.642 1.54171 32.5558 1.7053L29.9693 6.61839L24.4991 7.56597C24.3171 7.5975 24.1471 7.67816 24.0075 7.79925C23.8679 7.92034 23.764 8.07726 23.7069 8.25311C23.6499 8.42895 23.6419 8.61705 23.6838 8.79711C23.7257 8.97716 23.8159 9.14236 23.9448 9.27488L27.8143 13.2564ZM30.8074 8.53437C30.9604 8.50784 31.1054 8.4465 31.231 8.35507C31.3567 8.26363 31.4597 8.14455 31.5321 8.007L33.4535 4.35646L35.3783 8.00751C35.4507 8.14494 35.5537 8.2639 35.6793 8.35524C35.8049 8.44658 35.9498 8.50786 36.1028 8.53437L40.1689 9.2387L37.2929 12.1984C37.1846 12.3099 37.1033 12.4448 37.0553 12.5927C37.0073 12.7406 36.9938 12.8976 37.016 13.0515L37.6044 17.1367L33.9015 15.3133C33.7621 15.2446 33.6088 15.2089 33.4534 15.2089C33.2979 15.2089 33.1446 15.2446 33.0052 15.3133L29.3063 17.1359L29.8945 13.0514C29.9167 12.8974 29.9032 12.7405 29.8552 12.5926C29.8072 12.4447 29.7259 12.3098 29.6176 12.1984L26.7411 9.2387L30.8074 8.53437ZM8.9785 14.9694L8.43466 18.754C8.40837 18.937 8.4325 19.1237 8.50446 19.294C8.57641 19.4644 8.69347 19.6118 8.84299 19.7204C8.99252 19.829 9.16884 19.8948 9.35294 19.9105C9.53704 19.9262 9.72194 19.8913 9.88769 19.8096L13.3155 18.1197L16.7399 19.8093C16.9056 19.8911 17.0905 19.926 17.2746 19.9103C17.4588 19.8947 17.6351 19.829 17.7847 19.7204C17.9342 19.6118 18.0513 19.4644 18.1233 19.2941C18.1953 19.1238 18.2194 18.937 18.1932 18.754L17.6493 14.9697L20.3145 12.2293C20.4433 12.0968 20.5336 11.9316 20.5755 11.7516C20.6175 11.5715 20.6095 11.3834 20.5525 11.2076C20.4955 11.0317 20.3916 10.8748 20.252 10.7536C20.1124 10.6325 19.9424 10.5518 19.7604 10.5203L15.9945 9.86775L14.2134 6.48763C14.1273 6.32416 13.9982 6.18732 13.8401 6.09184C13.6819 5.99636 13.5008 5.94586 13.3161 5.94579C13.1315 5.94578 12.9504 5.99617 12.7923 6.09154C12.6341 6.1869 12.505 6.32363 12.4187 6.48699L10.6339 9.86775L6.87102 10.5204C6.68905 10.552 6.51914 10.6326 6.37959 10.7537C6.24004 10.8747 6.13614 11.0316 6.07909 11.2074C6.02204 11.3832 6.014 11.5712 6.05584 11.7512C6.09768 11.9312 6.18782 12.0964 6.31653 12.229L8.9785 14.9694ZM11.4716 11.784C11.6245 11.7575 11.7692 11.6963 11.8948 11.6051C12.0203 11.5138 12.1233 11.395 12.1957 11.2578L13.3149 9.13765L14.4312 11.2578C14.5036 11.3953 14.6066 11.5143 14.7323 11.6057C14.8579 11.697 15.0028 11.7584 15.1558 11.7849L17.5168 12.1939L15.8459 13.912C15.7376 14.0234 15.6562 14.1583 15.6082 14.3061C15.5601 14.454 15.5466 14.6109 15.5687 14.7648L15.9095 17.1359L13.7639 16.0774C13.6244 16.0086 13.4709 15.9728 13.3154 15.9728C13.1598 15.9728 13.0063 16.0086 12.8668 16.0774L10.7172 17.1371L11.0581 14.7651C11.0802 14.6113 11.0667 14.4544 11.0187 14.3066C10.9707 14.1588 10.8895 14.024 10.7813 13.9126L9.11246 12.1932L11.4716 11.784ZM49.2578 14.9694L48.7144 18.754C48.6881 18.937 48.7123 19.1237 48.7842 19.294C48.8562 19.4644 48.9732 19.6118 49.1228 19.7204C49.2723 19.829 49.4486 19.8948 49.6327 19.9105C49.8168 19.9262 50.0017 19.8913 50.1674 19.8096L53.5954 18.1197L57.0235 19.8096C57.1893 19.8913 57.3743 19.9262 57.5584 19.9104C57.7426 19.8947 57.919 19.8289 58.0685 19.7201C58.2181 19.6114 58.3351 19.4639 58.407 19.2934C58.4788 19.123 58.5028 18.9362 58.4764 18.7531L57.9295 14.9699L60.5942 12.2298C60.7231 12.0973 60.8134 11.9322 60.8553 11.7521C60.8972 11.572 60.8893 11.3839 60.8322 11.2081C60.7752 11.0322 60.6713 10.8753 60.5317 10.7542C60.3921 10.633 60.2222 10.5524 60.0401 10.5208L56.2741 9.86826L54.4925 6.48763C54.4064 6.32414 54.2773 6.18729 54.1191 6.09181C53.961 5.99633 53.7798 5.94584 53.5951 5.94579C53.4105 5.9458 53.2294 5.9962 53.0713 6.09157C52.9132 6.18693 52.7841 6.32365 52.6979 6.48699L50.9134 9.86775L47.1505 10.5204C46.9685 10.552 46.7986 10.6326 46.6591 10.7536C46.5195 10.8747 46.4156 11.0316 46.3585 11.2074C46.3014 11.3831 46.2934 11.5712 46.3352 11.7512C46.3771 11.9312 46.4672 12.0964 46.5959 12.229L49.2578 14.9694ZM51.7508 11.784C51.9036 11.7575 52.0484 11.6962 52.1739 11.605C52.2994 11.5138 52.4024 11.3949 52.4749 11.2576L53.594 9.13752L54.7103 11.2576C54.7828 11.3951 54.8858 11.5141 55.0114 11.6055C55.137 11.6969 55.2819 11.7582 55.435 11.7847L57.796 12.1938L56.1251 13.9118C56.0166 14.0234 55.9352 14.1584 55.8872 14.3064C55.8391 14.4545 55.8257 14.6116 55.848 14.7656L56.1905 17.1358L54.0428 16.077C53.9033 16.0083 53.7498 15.9726 53.5943 15.9726C53.4388 15.9726 53.2854 16.0083 53.1458 16.077L50.9963 17.1366L51.3372 14.7648C51.3593 14.611 51.3459 14.4541 51.2979 14.3063C51.2499 14.1585 51.1687 14.0237 51.0604 13.9122L49.3916 12.1932L51.7508 11.784Z" fill="#02050A"/>
</svg>
